<svg aria-hidden="true" style="position: absolute; width: 0; height: 0; overflow: hidden;" version="1.1" xmlns="http://www.w3.org/2000/svg" xmlns:xlink="http://www.w3.org/1999/xlink">
    <defs>
        <symbol id="earth" viewBox="0 0 25 32">
            <title>Earth</title>

            <path fill="#fff" style="fill: var(--color1, #fff)" d="M4.889 3.923l-1.482 1.722c0.432-0.626 0.929-1.203 1.482-1.722z"></path>
            <path fill="#000" style="fill: var(--color2, #000)" d="M3.514 5.738l-0.224-0.173c0.435-0.63 0.94-1.218 1.502-1.745l0.204 0.195-1.482 1.722z"></path>
            <path fill="#fff" style="fill: var(--color1, #fff)" d="M21.656 16.53l0.733-1.84c-0.188 0.64-0.434 1.256-0.733 1.84z"></path>
            <path fill="#000" style="fill: var(--color2, #000)" d="M21.782 16.594l-0.257-0.117 0.733-1.84 0.267 0.092c-0.189 0.645-0.439 1.272-0.742 1.865z"></path>
            <path fill="#fff" style="fill: var(--color1, #fff)" d="M22.392 14.68l0.232-1.747-1.401 0.269-2.667-3.044c0 0-3.96-0.054-4.148 0s-0.674 2.182-0.674 2.182l1.67 1.482 0.916 1.67 0.134 2.29-0.673 2.37-2.398-0.862-2.886 2.912c-4.146-0.655-7.495-3.703-8.591-7.684l1.322-1.397c0 0 0.862-2.289 0.97-2.289s3.421 0.296 3.421 0.296l1.697-3.717 0.566-3.394-2.047-1.886-2.945 1.789c0.363-0.34 0.749-0.655 1.156-0.942 1.733-1.221 3.845-1.938 6.125-1.938 5.88 0 10.646 4.767 10.646 10.646 0 1.039-0.15 2.043-0.427 2.993z"></path>
            <path fill="#000" style="fill: var(--color2, #000)" d="M10.548 22.354l-0.072-0.011c-4.168-0.658-7.585-3.715-8.705-7.786l-0.021-0.077 1.358-1.434c0.045-0.12 0.236-0.623 0.435-1.121 0.134-0.334 0.245-0.601 0.33-0.792 0.166-0.371 0.218-0.441 0.326-0.441 0.103 0 2.608 0.223 3.334 0.288l1.648-3.609 0.55-3.3-1.913-1.762-4.019 2.441 0.995-0.932c0.369-0.346 0.763-0.667 1.171-0.954 1.823-1.285 3.97-1.964 6.207-1.964 2.882 0 5.591 1.122 7.628 3.16s3.16 4.747 3.16 7.628c0 1.030-0.146 2.050-0.433 3.032l-0.276-0.058 0.206-1.552-1.288 0.247-2.679-3.057c-0.325-0.004-1.84-0.023-2.924-0.023-0.772 0-1.018 0.010-1.096 0.016-0.117 0.18-0.378 1.122-0.58 1.998l1.625 1.442 0.943 1.719 0.138 2.345-0.006 0.023-0.714 2.516-2.455-0.883-2.874 2.9zM2.065 14.558c1.106 3.903 4.384 6.834 8.384 7.494l2.899-2.925 2.34 0.841 0.625-2.201-0.131-2.234-0.889-1.62-1.714-1.521 0.019-0.082c0.001-0.005 0.123-0.541 0.267-1.076 0.31-1.155 0.414-1.184 0.505-1.21 0.038-0.011 0.103-0.029 1.198-0.029 1.216 0 2.973 0.024 2.991 0.024l0.063 0.001 2.655 3.030 1.344-0.258c0.038-0.365 0.058-0.733 0.058-1.103 0-5.793-4.713-10.505-10.505-10.505-1.466 0-2.891 0.299-4.208 0.876l2.070 1.907-0.581 3.488-1.746 3.825-0.1-0.009c-1.206-0.108-2.981-0.264-3.346-0.292-0.134 0.232-0.547 1.258-0.899 2.194l-0.010 0.027-1.287 1.359z"></path>
            <path fill="#fff" style="fill: var(--color1, #fff)" d="M2.101 8.229c0.316-0.922 0.756-1.787 1.299-2.575l-1.299 2.575z"></path>
            <path fill="#000" style="fill: var(--color2, #000)" d="M2.227 8.293l-0.26-0.11c0.317-0.924 0.76-1.802 1.317-2.609l0.243 0.144-1.299 2.575z"></path>
            <path fill="#fff" style="fill: var(--color1, #fff)" d="M3.407 5.646c-0.003 0.003-0.005 0.006-0.006 0.009l0.002-0.004 0.004-0.004z"></path>
            <path fill="#000" style="fill: var(--color2, #000)" d="M3.507 5.745l-0.039-0.039-0.040-0.035-0.151-0.085 0.011-0.020 0.012-0.013 0.009-0.009 0.127 0.121 0.093 0.051-0.002 0.004-0.077-0.042 0.007 0.006-0.001-0.001 0.060 0.052-0.040-0.034 0.038 0.036-0.064-0.055 0.001 0 0.062 0.056-0.042-0.036z"></path>
            <path fill="#fff" style="fill: var(--color1, #fff)" d="M1.531 11.992c-0.003-0.101-0.005-0.202-0.005-0.305 0-1.21 0.202-2.374 0.575-3.459l-0.57 3.763z"></path>
            <path fill="#000" style="fill: var(--color2, #000)" d="M1.671 12.013l-0.281-0.017c-0.003-0.119-0.005-0.217-0.005-0.309 0-1.2 0.196-2.379 0.583-3.505l0.274 0.067-0.57 3.763z"></path>
            <path fill="#fff" style="fill: var(--color1, #fff)" d="M1.531 11.995l0.375 2.519c-0.221-0.806-0.351-1.649-0.375-2.519z"></path>
            <path fill="#000" style="fill: var(--color2, #000)" d="M1.77 14.552c-0.228-0.829-0.356-1.688-0.38-2.553l0.281-0.025 0.375 2.519-0.276 0.058z"></path>
            <path fill="#fff" style="fill: var(--color1, #fff)" d="M10.5 22.203c0.545 0.086 1.104 0.131 1.673 0.131 0.618 0 1.223-0.053 1.812-0.154l-3.485 0.023z"></path>
            <path fill="#000" style="fill: var(--color2, #000)" d="M12.173 22.475c-0.566 0-1.136-0.045-1.695-0.133l0.021-0.281 3.485-0.023 0.025 0.281c-0.605 0.104-1.222 0.156-1.836 0.156z"></path>
            <path fill="#fff" style="fill: var(--color1, #fff)" d="M16.79 21.283l-2.8 0.896c0.986-0.17 1.926-0.475 2.8-0.896z"></path>
            <path fill="#000" style="fill: var(--color2, #000)" d="M14.015 22.318l-0.067-0.274 2.8-0.896 0.105 0.262c-0.898 0.433-1.852 0.738-2.837 0.908z"></path>
            <path fill="#fff" style="fill: var(--color1, #fff)" d="M21.656 16.531l-0.83 1.359c0.309-0.43 0.587-0.884 0.83-1.359z"></path>
            <path fill="#000" style="fill: var(--color2, #000)" d="M20.941 17.972l-0.236-0.156 0.83-1.359 0.247 0.138c-0.243 0.476-0.526 0.939-0.841 1.377z"></path>
            <path fill="#fff" style="fill: var(--color1, #fff)" d="M19.127 19.749c0.635-0.548 1.204-1.171 1.695-1.853l-1.695 1.853z"></path>
            <path fill="#000" style="fill: var(--color2, #000)" d="M19.22 19.856l-0.197-0.203 1.695-1.853 0.219 0.178c-0.497 0.691-1.074 1.322-1.717 1.878z"></path>
            <path fill="#fff" style="fill: var(--color1, #fff)" d="M16.791 21.283c0.847-0.408 1.631-0.925 2.335-1.533l-2.335 1.533z"></path>
            <path fill="#000" style="fill: var(--color2, #000)" d="M16.852 21.41l-0.139-0.246 2.335-1.533 0.17 0.225c-0.719 0.62-1.515 1.143-2.366 1.554z"></path>
        </symbol>



        <symbol id="person" viewBox="0 0 25 32">
            <title>Person</title>
            <path d="M14.585 15.052l-2.029-0.304h-0.015l-0.005-0.003-0.012-0.002-0.011-0.011-0.781-0.433-0.887-0.852c-0.545-0.707-0.833-1.551-0.833-2.438 0-2.239 1.867-4.061 4.162-4.061s4.162 1.822 4.162 4.061c0 1.172-0.519 2.287-1.424 3.059l-0.012 0.008-1.243 0.729-1.070 0.246zM12.6 14.591l1.979 0.296 1.016-0.234 1.215-0.713c0.866-0.741 1.362-1.809 1.362-2.931 0-2.15-1.794-3.899-4-3.899s-4 1.749-4 3.899c0 0.849 0.275 1.657 0.796 2.335l0.86 0.824 0.754 0.418h0.013l0.005 0.005z"></path>
            <path d="M15.27 22.914l-3.646-0.212 0.16-3.318-0.34 3.329-3.619-0.283 0.962-4.396-1.734-1.176 3.865-3.579 0.054 0.070c0.241 0.313 0.529 0.589 0.854 0.819 0.239 0.169 0.497 0.312 0.766 0.425 0.5 0.21 1.031 0.316 1.579 0.316 0.969 0 1.904-0.342 2.632-0.963l0.073-0.062 2.296 3.844-4.097 2.258 0.193 2.929zM11.793 22.55l3.303 0.192-0.438-6.656 0.161-0.013 0.352 3.676 3.779-2.082-2.113-3.537c-0.747 0.607-1.689 0.941-2.664 0.941-0.57 0-1.122-0.111-1.642-0.329-0.281-0.118-0.549-0.266-0.797-0.442-0.315-0.222-0.595-0.486-0.834-0.783l-3.587 3.321 1.414 0.959 0.399-1.309 0.156 0.041-1.26 5.755 3.277 0.256 0.32-3.135-1.772-0.051 0.001-0.162 3.495-0.081 0.006 0.161-1.402 0.077-0.154 3.201z"></path>
            <path d="M12.531 14.742c-0.281-0.118-0.549-0.266-0.797-0.442l0.086-0.137 0.782 0.433-0.070 0.145z"></path>
            <path d="M11.734 14.3c-0.339-0.24-0.638-0.526-0.889-0.852l0.12-0.108 0.872 0.835-0.103 0.124z"></path>
            <path d="M14.173 15.070c-0.57 0-1.122-0.111-1.642-0.329l-0.597-0.25 2.645 0.396 1.016-0.234 1.222-0.717 0.093 0.131c-0.371 0.316-0.794 0.563-1.247 0.733l-0.008 0.005-0.012 0.003c-0.335 0.124-0.687 0.205-1.047 0.241l-0.011 0.003-0.006-0.001c-0.135 0.013-0.27 0.019-0.407 0.019z"></path>
        </symbol>




        <symbol id="microbe" viewBox="0 0 25 32">
            <title>Microbe</title>

            <path d="M14.707 11.719c0-1.621-1.287-2.939-2.869-2.939s-2.869 1.319-2.869 2.939c0 1.621 1.287 2.939 2.869 2.939s2.869-1.319 2.869-2.939zM9.172 11.719c0-1.509 1.196-2.737 2.667-2.737s2.667 1.228 2.667 2.737c0 1.509-1.196 2.737-2.667 2.737s-2.667-1.228-2.667-2.737z"></path>
            <path d="M12.364 11.891c0-0.379-0.299-0.687-0.667-0.687s-0.667 0.308-0.667 0.687 0.299 0.687 0.667 0.687c0.368 0 0.667-0.308 0.667-0.687zM11.697 12.376c-0.256 0-0.465-0.217-0.465-0.485s0.208-0.485 0.465-0.485c0.256 0 0.465 0.217 0.465 0.485s-0.208 0.485-0.465 0.485z"></path>
            <path d="M16.303 16.538h-0.107c-0.085 0.766-1.128 1.374-2.398 1.374-0.893 0-1.73-0.16-2.358-0.452-0.549-0.255-0.873-0.579-0.926-0.922h-0.11v-0.101h-0.101c0 0.94 1.535 1.677 3.495 1.677 1.437 0 2.606-0.752 2.606-1.677h-0.101v0.101z"></path>
            <path d="M10.514 16.538h5.682c0.004-0.033 0.006-0.067 0.006-0.101h0.101v-0.101h-5.899v0.101h0.101c0 0.034 0.004 0.067 0.009 0.101z"></path>
            <path d="M1.010 23.585l2.182-8.037 2.777 1.828-3.504-4.111z"></path>
            <path d="M22.263 15.141l-3.634 2.486c0.362-0.971 0.563-2.042 0.563-3.167 0-4.4-3.072-7.98-6.848-7.98s-6.848 3.58-6.848 7.98c0 1.029 0.168 2.013 0.474 2.916 1.002 2.962 3.481 5.063 6.375 5.063 2.773 0 5.166-1.93 6.242-4.698l3.192-1.106 1.939 7.96-1.455-9.455zM12.343 22.238c-3.665 0-6.646-3.489-6.646-7.778 0-2.281 0.988-7.778 6.646-7.778 3.665 0 6.646 3.489 6.646 7.778s-2.982 7.778-6.646 7.778z"></path>
        </symbol>



        
        <symbol id="mountain" viewBox="0 0 25 32">
            <title>Mountain-3</title>
            <path d="M21.021 15.296l-5.758-5.758-0.029 0.029-0.025-0.032-1.42 1.116-1.968-1.968-0.029 0.029-0.029-0.029-1.905 1.906-2.452-1.199-0.018 0.036-0.029-0.029-2.696 2.696 0.057 0.057 1.671-1.671c0.012 0.013 0.024 0.021 0.033 0.027 0.011 0.008 0.011 0.008 0.012 0.021l0.002 0.029 0.028 0.008c0.044 0.012 0.086 0.025 0.127 0.038 0.1 0.031 0.192 0.061 0.29 0.061 0.079 0 0.161-0.018 0.255-0.069 0.057-0.030 0.102-0.060 0.142-0.087 0.126-0.082 0.189-0.124 0.397-0.054 0.066 0.022 0.125 0.057 0.183 0.091 0.135 0.079 0.275 0.162 0.46 0.041 0.084-0.055 0.142-0.153 0.199-0.249 0.050-0.085 0.098-0.166 0.157-0.204l-0.031-0.047 1.152 0.564-2.954 2.954-2.505-1.652-0.022 0.034-0.029-0.029-3.34 3.34 0.057 0.057v0.040h20.013v-0.081h-0.017l0.017-0.017zM8.451 10.296c-0.051 0.087-0.105 0.177-0.173 0.222-0.143 0.093-0.245 0.033-0.375-0.043-0.061-0.036-0.125-0.073-0.198-0.098-0.245-0.082-0.333-0.024-0.466 0.063-0.039 0.025-0.083 0.054-0.136 0.083-0.182 0.098-0.308 0.058-0.483 0.002-0.034-0.011-0.068-0.022-0.105-0.032-0.008-0.028-0.025-0.042-0.043-0.054-0.008-0.005-0.014-0.009-0.021-0.017l-0.001 0.001 0.948-0.948 1.225 0.599c-0.069 0.050-0.121 0.137-0.171 0.222zM3.683 12.678c0.030 0.010 0.059 0.019 0.086 0.029 0.139 0.047 0.256 0.087 0.414 0.087 0.050 0 0.105-0.004 0.165-0.013 0.047-0.007 0.117-0.008 0.19-0.010 0.227-0.005 0.509-0.011 0.572-0.178l-0.076-0.028c-0.044 0.116-0.306 0.122-0.498 0.126-0.076 0.002-0.148 0.003-0.2 0.011-0.232 0.034-0.362-0.009-0.542-0.070-0.015-0.005-0.031-0.011-0.048-0.016l0.577-0.577 2.505 1.652 0.022-0.034 0.029 0.029 3.449-3.449c0.019 0.016 0.038 0.034 0.057 0.052 0.075 0.072 0.158 0.153 0.304 0.153 0.015 0 0.030-0.001 0.046-0.002 0.074-0.008 0.154-0.061 0.231-0.112 0.052-0.035 0.106-0.070 0.149-0.085l0.016-0.005 0.007-0.015c0.085-0.171 0.231-0.148 0.461-0.090 0.132 0.033 0.268 0.068 0.383 0.027 0.106-0.037 0.184-0.123 0.254-0.198 0.022-0.024 0.043-0.047 0.063-0.066 0.079-0.076 0.147-0.12 0.219-0.166 0.038-0.024 0.078-0.050 0.12-0.081l-0.048-0.065c-0.039 0.029-0.078 0.054-0.115 0.078-0.073 0.046-0.148 0.094-0.232 0.176-0.022 0.021-0.044 0.045-0.067 0.070-0.066 0.072-0.134 0.146-0.221 0.176-0.092 0.032-0.216 0.001-0.336-0.029-0.199-0.050-0.424-0.107-0.546 0.118-0.048 0.019-0.099 0.053-0.152 0.088-0.069 0.046-0.141 0.093-0.195 0.099-0.137 0.014-0.206-0.052-0.285-0.128-0.018-0.017-0.037-0.035-0.056-0.051l1.408-1.408 4.739 4.739 0.057-0.057-2.742-2.742 0.628-0.494c0.041 0.144 0.124 0.388 0.223 0.452 0.104 0.067 0.261 0.064 0.399 0.061 0.066-0.001 0.129-0.003 0.179 0.004 0.079 0.010 0.153 0.031 0.225 0.051 0.091 0.026 0.185 0.052 0.29 0.057 0.012 0.001 0.023 0.001 0.034 0.001 0.144 0 0.211-0.045 0.282-0.093 0.038-0.025 0.076-0.051 0.131-0.072l-0.029-0.075c-0.063 0.024-0.107 0.054-0.147 0.081-0.071 0.047-0.127 0.085-0.268 0.078-0.096-0.004-0.181-0.029-0.272-0.054-0.075-0.021-0.152-0.043-0.237-0.053-0.056-0.007-0.121-0.006-0.19-0.004-0.127 0.003-0.271 0.005-0.354-0.048-0.070-0.046-0.149-0.26-0.198-0.438l0.687-0.54 5.692 5.692h-19.875l2.636-2.636z"></path>
        </symbol>


        <symbol id="building" viewBox="0 0 64 32">
            <title>Building</title>
            <path d="M89.6 104.533h14.933v-102.4h-102.4v102.4h10.667l29.867-23.467v-55.467l9.6-6.4h9.6v1.067h-9.173v55.467l-38.827 30.933h-13.867v-106.667h106.667v106.667h-14.507z"></path>
            <path d="M59.093 23.467h1.28c0.236 0 0.427 0.191 0.427 0.427v1.28c0 0.236-0.191 0.427-0.427 0.427h-1.28c-0.236 0-0.427-0.191-0.427-0.427v-1.28c0-0.236 0.191-0.427 0.427-0.427z"></path>
            <path d="M54.827 23.467h1.28c0.236 0 0.427 0.191 0.427 0.427v1.28c0 0.236-0.191 0.427-0.427 0.427h-1.28c-0.236 0-0.427-0.191-0.427-0.427v-1.28c0-0.236 0.191-0.427 0.427-0.427z"></path>
            <path d="M59.093 27.733h1.28c0.236 0 0.427 0.191 0.427 0.427v1.28c0 0.236-0.191 0.427-0.427 0.427h-1.28c-0.236 0-0.427-0.191-0.427-0.427v-1.28c0-0.236 0.191-0.427 0.427-0.427z"></path>
            <path d="M54.827 27.733h1.28c0.236 0 0.427 0.191 0.427 0.427v1.28c0 0.236-0.191 0.427-0.427 0.427h-1.28c-0.236 0-0.427-0.191-0.427-0.427v-1.28c0-0.236 0.191-0.427 0.427-0.427z"></path>
        </symbol>
    </defs>
</svg>